<?xml version="1.0" encoding="UTF-8"?>
<svg width="20px" height="30px" viewBox="0 0 20 30" version="1.1" xmlns="http://www.w3.org/2000/svg" xmlns:xlink="http://www.w3.org/1999/xlink">
    <!-- Generator: Sketch 50.2 (55047) - http://www.bohemiancoding.com/sketch -->
    <title>pushover-glances</title>
    <desc>Created with Sketch.</desc>
    <defs></defs>
    <g id="pushover-glances" stroke="none" stroke-width="1" fill="none" fill-rule="evenodd">
        <g id="Group" transform="translate(0.000000, 3.000000)">
            <path d="M9.37697164,6.97999981 L12.2649564,6.57999981 L9.45297124,13.2599998 C9.94696863,13.2199998 10.4313885,13.0433876 10.9062697,12.7302039 C11.3813835,12.4167345 11.8185363,12.0233876 12.2176505,11.5502039 C12.6165321,11.0767345 12.9616323,10.5500814 13.2529512,9.97020389 C13.5442701,9.39008144 13.753269,8.81999981 13.8799479,8.25999981 C13.9559475,7.91334675 13.9908453,7.57999981 13.9846412,7.25999981 C13.9781657,6.93999981 13.8989478,6.65999981 13.7469486,6.41999981 C13.5949494,6.17999981 13.3637322,5.98665287 13.0532584,5.83999981 C12.7430559,5.69334675 12.3219561,5.61999981 11.7899589,5.61999981 C11.1692826,5.61999981 10.5580675,5.72665287 9.95627471,5.93999981 C9.35475339,6.15334675 8.79739715,6.46338756 8.28428353,6.87020389 C7.77140256,7.2767345 7.32498246,7.78338756 6.94498447,8.39020389 C6.56498647,8.9967345 6.2926675,9.68665287 6.12798878,10.4599998 C6.0646687,10.7133467 6.0266689,10.9166121 6.01398938,11.0697957 C6.00130985,11.2232651 5.99820783,11.3499182 6.0046833,11.4497957 C6.01088735,11.5499182 6.02341178,11.6266529 6.04229535,11.6799998 C6.06141158,11.7333467 6.07730945,11.7866529 6.08998898,11.8399998 C5.44399238,11.8399998 4.97209691,11.7032651 4.67430257,11.4297957 C4.37677965,11.1566121 4.3039984,10.6799998 4.45599759,9.99999981 C4.60799679,9.29334675 4.95321334,8.61999981 5.49168601,7.97999981 C6.02988725,7.33999981 6.66940837,6.77661205 7.41028814,6.28979573 C8.15140055,5.80326512 8.96207587,5.4167345 9.84227531,5.13020389 C10.7227462,4.84338756 11.58096,4.69999981 12.4169556,4.69999981 C13.1516313,4.69999981 13.7690505,4.80991818 14.269252,5.02979573 C14.7697248,5.24991818 15.1592616,5.53999981 15.4379397,5.89999981 C15.7166178,6.25999981 15.8907189,6.67999981 15.960243,7.15999981 C16.0300386,7.63999981 16.0079367,8.13999981 15.8939373,8.65999981 C15.7546176,9.28665287 15.491721,9.9167345 15.1052476,10.5502039 C14.7190455,11.1833876 14.2346256,11.7567345 13.6519491,12.2702039 C13.0692726,12.7833876 12.4010577,13.1999998 11.6472658,13.5199998 C10.8937453,13.8399998 10.0926475,13.9999998 9.24397234,13.9999998 L9.14897284,13.9999998 L6.73598557,19.6999998 L4,19.6999998 L9.37697164,6.97999981 Z" id="Shape" fill="#FFFFFF" fill-rule="nonzero"></path>
            <rect id="Rectangle" stroke="#FFFFFF" x="0.5" y="2.5" width="19" height="19" rx="3.125"></rect>
            <path d="M3,21 L17,21 L16.2944669,22.9654137 C16.0716777,23.5860407 15.4832537,24 14.8238502,24 L5.17614979,24 C4.51674633,24 3.9283223,23.5860407 3.70553312,22.9654137 L3,21 Z" id="Rectangle-2" fill="#FFFFFF"></path>
            <path d="M3,-1.26565425e-14 L17,-1.26565425e-14 L16.2944669,1.96541368 C16.0716777,2.5860407 15.4832537,3 14.8238502,3 L5.17614979,3 C4.51674633,3 3.9283223,2.5860407 3.70553312,1.96541368 L3,-1.26565425e-14 Z" id="Rectangle-2" fill="#FFFFFF" transform="translate(10.000000, 1.500000) scale(1, -1) translate(-10.000000, -1.500000) "></path>
        </g>
    </g>
</svg>