<?xml version="1.0" encoding="UTF-8"?>
<svg width="20px" height="30px" viewBox="0 0 20 30" version="1.1" xmlns="http://www.w3.org/2000/svg" xmlns:xlink="http://www.w3.org/1999/xlink">
    <!-- Generator: Sketch 50.2 (55047) - http://www.bohemiancoding.com/sketch -->
    <title>pushover</title>
    <desc>Created with Sketch.</desc>
    <defs></defs>
    <g id="pushover" stroke="none" stroke-width="1" fill="none" fill-rule="evenodd">
        <path d="M8.9616194,6.648 L13.7749273,6.008 L9.0882854,16.696 C9.91161439,16.632 10.7189809,16.3494204 11.5104495,15.8483265 C12.3023059,15.3467755 13.0308939,14.7174204 13.6960842,13.9603265 C14.3608868,13.2027755 14.9360539,12.3601306 15.4215853,11.4323265 C15.9071168,10.5041306 16.2554483,9.592 16.4665798,8.696 C16.5932458,8.1413551 16.6514088,7.608 16.6410687,7.096 C16.6302762,6.584 16.4982463,6.136 16.2449143,5.752 C15.9915823,5.368 15.6062204,5.0586449 15.088764,4.824 C14.5717599,4.5893551 13.8699268,4.472 12.9832649,4.472 C11.9488043,4.472 10.9301124,4.6426449 9.92712451,4.984 C8.92458898,5.3253551 7.99566191,5.82142041 7.14047254,6.47232653 C6.28567093,7.12277551 5.54163744,7.93342041 4.90830745,8.90432653 C4.27497745,9.87477551 3.8211125,10.9786449 3.54664796,12.216 C3.4411145,12.6213551 3.3777815,12.9465796 3.35664896,13.1916735 C3.33551642,13.4372245 3.33034638,13.6398694 3.34113884,13.7996735 C3.35147892,13.9598694 3.37235296,14.0826449 3.40382558,14.168 C3.43568596,14.2533551 3.46218242,14.3386449 3.48331496,14.424 C2.40665397,14.424 1.62016152,14.2052245 1.12383761,13.7676735 C0.627966076,13.3305796 0.506663994,12.568 0.759995992,11.48 C1.01332799,10.3493551 1.5886889,9.272 2.48614335,8.248 C3.38314542,7.224 4.44901395,6.32257959 5.68381356,5.54367347 C6.91900092,4.76522449 8.27012645,4.14677551 9.73712551,3.68832653 C11.204577,3.22942041 12.6349334,3 14.0282593,3 C15.2527189,3 16.2817509,3.17586939 17.1154199,3.52767347 C17.9495414,3.87986939 18.5987693,4.344 19.0632328,4.92 C19.5276963,5.496 19.8178649,6.168 19.9337384,6.936 C20.0500643,7.704 20.0132278,8.504 19.8232288,9.336 C19.5910293,10.3386449 19.1528684,11.3467755 18.5087459,12.3603265 C17.8650758,13.3734204 17.0577094,14.2907755 16.0865818,15.1123265 C15.1154543,15.9334204 14.0017629,16.6 12.745443,17.112 C11.4895755,17.624 10.1544124,17.88 8.7399539,17.88 L8.5816214,17.88 L4.55997595,27 L0,27 L8.9616194,6.648 Z" id="Shape" fill="#FFFFFF" fill-rule="nonzero"></path>
    </g>
</svg>