<?xml version="1.0" encoding="UTF-8"?>
<svg width="20px" height="30px" viewBox="0 0 20 30" version="1.1" xmlns="http://www.w3.org/2000/svg" xmlns:xlink="http://www.w3.org/1999/xlink">
    <!-- Generator: Sketch 50.2 (55047) - http://www.bohemiancoding.com/sketch -->
    <title>pushover</title>
    <desc>Created with Sketch.</desc>
    <defs></defs>
    <g id="pushover" stroke="none" stroke-width="1" fill="none" fill-rule="evenodd">
        <path d="M9.72121455,8.736 L13.3311955,8.256 L9.81621405,16.272 C10.4337108,16.224 11.0392357,16.0120653 11.6328371,15.6362449 C12.2267294,15.2600816 12.7731704,14.7880653 13.2720632,14.2202449 C13.7706651,13.6520816 14.2020404,13.020098 14.566189,12.3242449 C14.9303376,11.628098 15.1915862,10.944 15.3499349,10.272 C15.4449344,9.85601633 15.4885566,9.456 15.4808015,9.072 C15.4727072,8.688 15.3736847,8.352 15.1836857,8.064 C14.9936867,7.776 14.7046653,7.54398367 14.316573,7.368 C13.9288199,7.19201633 13.4024451,7.104 12.7374486,7.104 C11.9616032,7.104 11.1975843,7.23198367 10.4453434,7.488 C9.69344174,7.74401633 8.99674643,8.11606531 8.35535441,8.6042449 C7.7142532,9.09208163 7.15622808,9.70006531 6.68123058,10.4282449 C6.20623309,11.1560816 5.86583437,11.9839837 5.65998597,12.912 C5.58083588,13.2160163 5.53333613,13.4599347 5.51748672,13.6437551 C5.50163732,13.8279184 5.49775979,13.979902 5.50585413,14.0997551 C5.51360919,14.219902 5.52926472,14.3119837 5.55286919,14.376 C5.57676447,14.4400163 5.59663681,14.5039837 5.61248622,14.568 C4.80499048,14.568 4.21512114,14.4039184 3.84287821,14.0757551 C3.47097456,13.7479347 3.379998,13.176 3.56999699,12.36 C3.75999599,11.5120163 4.19151667,10.704 4.86460751,9.936 C5.53735907,9.168 6.33676046,8.49193469 7.26286017,7.9077551 C8.18925069,7.32391837 9.20259484,6.86008163 10.3028441,6.5162449 C11.4034327,6.17206531 12.4762,6 13.5211945,6 C14.4395392,6 15.2113131,6.13190204 15.8365649,6.3957551 C16.462156,6.65990204 16.9490769,7.008 17.2974246,7.44 C17.6457722,7.872 17.8633986,8.376 17.9503038,8.952 C18.0375482,9.528 18.0099208,10.128 17.8674216,10.752 C17.693272,11.5039837 17.3646513,12.2600816 16.8815594,13.0202449 C16.3988069,13.7800653 15.793282,14.4680816 15.0649364,15.0842449 C14.3365907,15.7000653 13.5013222,16.2 12.5590822,16.584 C11.6171816,16.968 10.6158093,17.16 9.55496543,17.16 L9.43621605,17.16 L6.41998196,24 L3,24 L9.72121455,8.736 Z" id="Shape" fill="#FFFFFF" fill-rule="nonzero"></path>
    </g>
</svg>