<?xml version="1.0" encoding="UTF-8"?>
<svg width="80px" height="80px" viewBox="0 0 80 80" version="1.1" xmlns="http://www.w3.org/2000/svg" xmlns:xlink="http://www.w3.org/1999/xlink">
    <!-- Generator: Sketch 50.2 (55047) - http://www.bohemiancoding.com/sketch -->
    <title>pushover-glances</title>
    <desc>Created with Sketch.</desc>
    <defs></defs>
    <g id="pushover-glances" stroke="none" stroke-width="1" fill="none" fill-rule="evenodd">
        <path d="M37.1309149,25.536 L45.7948692,24.3893333 L37.3589137,43.5386667 C38.8409059,43.424 40.2941656,42.9177116 41.7188091,42.0199184 C43.1441506,41.1213061 44.4556089,39.9937116 45.6529516,38.6372517 C46.8495963,37.2799728 47.884897,35.770234 48.7588536,34.1079184 C49.6328102,32.4449007 50.2598069,30.8106667 50.6398437,29.2053333 C50.8678425,28.2115946 50.9725358,27.256 50.9539236,26.3386667 C50.9344972,25.4213333 50.6968434,24.6186667 50.2408458,23.9306667 C49.7848482,23.2426667 49.0911967,22.6884054 48.1597751,22.268 C47.2291678,21.8475946 45.9658683,21.6373333 44.3698767,21.6373333 C42.5078478,21.6373333 40.6742024,21.9430721 38.8688241,22.5546667 C37.0642602,23.1662612 35.3921914,24.0550449 33.8528506,25.2212517 C32.3142077,26.3866395 30.9749474,27.8390449 29.8349534,29.578585 C28.6949594,31.3173061 27.8780025,33.2950721 27.3839663,35.512 C27.1940061,36.2382612 27.0800067,36.8209551 27.0419681,37.2600816 C27.0039296,37.7000272 26.9946235,38.0630993 27.0140499,38.349415 C27.0326621,38.6364327 27.0702353,38.8564054 27.1268861,39.0093333 C27.1842347,39.1622612 27.2319284,39.3150721 27.2699669,39.468 C25.3319772,39.468 23.9162907,39.0760272 23.0229077,38.2920816 C22.1303389,37.5089551 21.9119952,36.1426667 22.3679928,34.1933333 C22.8239904,32.1675946 23.85964,30.2373333 25.475058,28.4026667 C27.0896618,26.568 29.0082251,24.9529551 31.2308644,23.557415 C33.4542017,22.1626939 35.8862276,21.0546395 38.5268259,20.2332517 C41.1682385,19.4110449 43.74288,19 46.2508668,19 C48.454894,19 50.3071515,19.3150993 51.8077559,19.945415 C53.3091745,20.5764327 54.4777847,21.408 55.313819,22.44 C56.1498534,23.472 56.6721568,24.676 56.8807291,26.052 C57.0901158,27.428 57.02381,28.8613333 56.6818118,30.352 C56.2638528,32.1484054 55.4751631,33.9546395 54.3157427,35.770585 C53.1571365,37.5857116 51.7038768,39.2293061 49.9558473,40.7012517 C48.2078177,42.1723782 46.2031732,43.3666667 43.9417974,44.284 C41.6812358,45.2013333 39.2779424,45.66 36.731917,45.66 L36.4469185,45.66 L29.2079567,62 L21,62 L37.1309149,25.536 Z" id="Shape" fill="#FFFFFF" fill-rule="nonzero"></path>
        <rect id="Rectangle" stroke="#FFFFFF" stroke-width="3" x="11.5" y="11.5" width="57" height="57" rx="10"></rect>
        <path d="M19,67 L61,67 L59.2166435,71.7556172 C58.4848241,73.7071358 56.6192205,75 54.5349977,75 L25.4650023,75 C23.3807795,75 21.5151759,73.7071358 20.7833565,71.7556172 L19,67 Z" id="Rectangle-2" fill="#FFFFFF"></path>
        <path d="M19,5 L61,5 L59.2166435,9.75561721 C58.4848241,11.7071358 56.6192205,13 54.5349977,13 L25.4650023,13 C23.3807795,13 21.5151759,11.7071358 20.7833565,9.75561721 L19,5 Z" id="Rectangle-2" fill="#FFFFFF" transform="translate(40.000000, 9.000000) scale(1, -1) translate(-40.000000, -9.000000) "></path>
    </g>
</svg>