<?xml version="1.0" encoding="UTF-8"?>
<svg width="80px" height="80px" viewBox="0 0 80 80" version="1.1" xmlns="http://www.w3.org/2000/svg" xmlns:xlink="http://www.w3.org/1999/xlink">
    <!-- Generator: Sketch 50.2 (55047) - http://www.bohemiancoding.com/sketch -->
    <title>pushover</title>
    <desc>Created with Sketch.</desc>
    <defs></defs>
    <g id="Page-1" stroke="none" stroke-width="1" fill="none" fill-rule="evenodd">
        <g id="pushover-icon" transform="translate(-10.000000, -10.000000)" fill="#FFFFFF" fill-rule="nonzero">
            <g id="Group" transform="translate(10.000000, 10.000000)">
                <path d="M36.9550705,18.6871246 L49.4937911,17.0372929 L37.2850369,44.5894815 C39.429818,44.4244983 41.5330167,43.6960471 43.5948012,42.4042963 C45.6575958,41.111367 47.5555756,39.4889764 49.2884039,37.5372929 C51.0202221,35.584431 52.5185386,33.4122088 53.7833534,31.0204579 C55.0481682,28.627697 55.9555756,26.2763502 56.5055756,23.9665859 C56.8355419,22.5367879 56.9870571,21.1618721 56.960121,19.8420067 C56.9320066,18.5221414 56.5880672,17.3672593 55.9281345,16.3773603 C55.2682019,15.3874613 54.2643298,14.5899865 52.91635,13.9851044 C51.5695487,13.3802222 49.7412658,13.077697 47.4315015,13.077697 C44.7367204,13.077697 42.0830167,13.517596 39.4702221,14.3975623 C36.8586059,15.2775286 34.4387406,16.5563165 32.2109628,18.2342626 C29.9841951,19.9110303 28.0459796,22.0007609 26.396148,24.5036229 C24.7463163,27.0053064 23.5639931,29.8509293 22.8490099,33.0406599 C22.5740941,34.0856094 22.4091109,34.9239933 22.3540604,35.5558114 C22.2990099,36.1888081 22.2855419,36.7111987 22.3136564,37.1231515 C22.3405924,37.5361145 22.3949695,37.8526128 22.4769561,38.0726465 C22.5599527,38.2926801 22.6289763,38.5125455 22.6840268,38.7325791 C19.879313,38.7325791 17.8304914,38.1686061 16.5375621,37.0406599 C15.2458113,35.9138923 14.929818,33.9480673 15.5897507,31.1433535 C16.2496833,28.2287071 17.7485049,25.4514343 20.0863837,22.8117037 C22.423084,20.1719731 25.1996833,17.8482357 28.41635,15.8403232 C31.6340268,13.8335892 35.1537237,12.2393131 38.9752726,11.0574949 C42.7979998,9.87449832 46.5240941,9.28308418 50.1537237,9.28308418 C53.3434544,9.28308418 56.0240941,9.73645118 58.1958113,10.6433535 C60.3687069,11.551266 62.0599527,12.7477306 63.2698854,14.2325791 C64.479818,15.7174276 65.2357103,17.4497508 65.5375621,19.4295488 C65.8405924,21.4093468 65.7446328,23.4716364 65.2496833,25.6164175 C64.6448012,28.2010976 63.503387,30.7999192 61.8254409,33.4127138 C60.1486732,36.02433 58.0454746,38.3891448 55.5156766,40.5069899 C52.9858786,42.6236566 50.0847002,44.3420067 46.8119729,45.6618721 C43.5404241,46.9817374 40.0623096,47.64167 36.3776295,47.64167 L35.9651715,47.64167 L25.4887406,71.151771 L13.6099527,71.151771 L36.9550705,18.6871246 Z" id="Shape"></path>
            </g>
        </g>
    </g>
</svg>